<svg xmlns="http://www.w3.org/2000/svg" viewBox="0 0 400 500">
  <defs>
    <radialGradient id="bg" cx="0.40" cy="0.3" r="0.95">
      <stop offset="0" stop-color="#a8a6a3"/><stop offset="1" stop-color="#757472"/>
    </radialGradient>
    <linearGradient id="body" x1="0.40" y1="0" x2="0.60" y2="1">
      <stop offset="0" stop-color="#3a3936"/><stop offset=".55" stop-color="#1d1c1a"/><stop offset="1" stop-color="#121210"/>
    </linearGradient>
    <filter id="soft" x="-20%" y="-20%" width="140%" height="140%"><feGaussianBlur stdDeviation="14"/></filter>
  </defs>
  <rect width="400" height="500" fill="url(#bg)"/>
  <ellipse cx="222" cy="395" rx="180" ry="120" fill="#000" opacity=".18" filter="url(#soft)"/>
  <g fill="url(#body)">
    <path d="M44 500 C50 375 134 327 178 311 L230 311 C274 327 358 375 364 500Z"/>
    <path d="M178 245 L230 245 L234 317 Q204 333 174 317Z"/>
    <ellipse cx="204" cy="205" rx="52" ry="64"/>
    <path d="M146 197 C142 135 266 131 262 199 C256 161 156 155 146 197Z"/>
  </g>
  <text x="28" y="54" font-family="Inter, Arial, sans-serif" font-size="28" font-weight="600" fill="#fff" fill-opacity=".92">10</text>
  <text x="372" y="50" text-anchor="end" font-family="Inter, Arial, sans-serif" font-size="12" letter-spacing="3" fill="#fff" fill-opacity=".8">DEMO</text>
</svg>
